<svg xmlns="http://www.w3.org/2000/svg" viewBox="0 0 512 512" fill="none">
  <defs>
    <!-- Brand Gradient -->
    <linearGradient id="brandGrad" x1="0%" y1="0%" x2="100%" y2="100%">
      <stop offset="0%" stop-color="#ff5d4b" />
      <stop offset="100%" stop-color="#e23a36" />
    </linearGradient>
  </defs>
  
  <!-- Rounded Brutalist Square Container -->
  <rect x="32" y="32" width="448" height="448" rx="96" fill="url(#brandGrad)" />
  
  <!-- Subtle Internal Grid Gridline Accent (Engineering Theme) -->
  <path d="M128 32v448M384 32v448M32 128h448M32 384h448" stroke="#ffffff" stroke-opacity="0.1" stroke-width="8" stroke-dasharray="16 16" />
  
  <!-- Monogram IP: bold, geometric, sleek -->
  <g fill="#ffffff">
    <!-- "I" column -->
    <rect x="140" y="130" width="48" height="252" rx="6" />
    <rect x="110" y="130" width="108" height="24" rx="4" />
    <rect x="110" y="358" width="108" height="24" rx="4" />
    
    <!-- "P" loop -->
    <path d="M228 130h110c45 0 82 37 82 82s-37 82-82 82H228V130zm48 114h62c19 0 34-15 34-32s-15-32-34-32h-62v64z" />
  </g>
</svg>
